<?xml version="1.0" standalone="no"?>
<svg xmlns="http://www.w3.org/2000/svg" width="24" height="24"><rect width="24" height="24" opacity="0"></rect><g><path d="M11.76 4.85Q11.98 4.85 12.14 4.69Q12.31 4.54 12.31 4.32Q12.31 4.1 12.14 3.95Q11.98 3.79 11.76 3.79L3.29 3.79Q3.07 3.79 2.9 3.94Q2.74 4.08 2.74 4.32Q2.74 4.56 2.9 4.7Q3.07 4.85 3.29 4.85L11.76 4.85ZM12.31 10.32Q12.31 10.1 12.14 9.95Q11.98 9.79 11.76 9.79L3.29 9.79Q3.07 9.79 2.9 9.94Q2.74 10.08 2.74 10.32Q2.74 10.54 2.9 10.69Q3.07 10.85 3.29 10.85L11.76 10.85Q11.98 10.85 12.14 10.69Q12.31 10.54 12.31 10.32ZM3.29 15.79Q3.07 15.79 2.9 15.95Q2.74 16.1 2.74 16.32Q2.74 16.54 2.9 16.69Q3.07 16.85 3.29 16.85L7.75 16.85Q7.97 16.85 8.12 16.69Q8.28 16.54 8.28 16.32Q8.28 16.1 8.12 15.95Q7.97 15.79 7.75 15.79L3.29 15.79Z" fill="rgba(255,255,255,1)"></path><path d="M18.38 4.1Q17.98 4.15 17.7 4.46Q17.42 4.78 17.42 5.21L17.45 6.91L17.45 13.13Q17.45 13.51 17.3 13.78Q17.16 14.04 16.9 14.26Q16.54 14.54 15.48 14.93L15.41 14.95Q14.26 15.43 13.54 15.91Q12.82 16.39 12.48 17.23Q12.29 17.78 12.36 18.34Q12.43 18.89 12.77 19.32Q13.25 19.9 14.02 20.11Q14.78 20.33 15.5 20.23Q17.21 20.04 17.86 18.9Q18.5 17.76 18.5 16.32L18.5 6.94Q18.55 6.43 18.73 6.25Q18.91 6.07 19.34 5.93Q19.94 5.69 20.26 5.5Q20.81 5.16 21.04 4.73Q21.26 4.3 21.22 3.77L18.38 4.1ZM15.38 19.2Q14.78 19.25 14.32 19.13Q13.85 19.01 13.58 18.7Q13.44 18.46 13.4 18.18Q13.37 17.9 13.46 17.62Q13.68 17.04 14.26 16.69Q14.83 16.34 15.79 15.96L15.89 15.94L16.03 15.86Q16.44 15.7 16.79 15.53Q17.14 15.36 17.42 15.14L17.42 16.63Q17.42 17.45 17.03 18.26Q16.63 19.08 15.38 19.2Z" fill="rgba(255,255,255,1)"></path></g></svg>