<svg xmlns="http://www.w3.org/2000/svg" xmlns:xlink="http://www.w3.org/1999/xlink" fill="none" version="1.1" width="209" height="36.00000762939453" viewBox="0 0 209 36.00000762939453"><defs><linearGradient x1="128" y1="26.399993896484375" x2="128" y2="5.399993896484375" gradientUnits="userSpaceOnUse" id="master_svg0_283_1865"><stop offset="0%" stop-color="#3080FF" stop-opacity="1"/><stop offset="100%" stop-color="#0042AC" stop-opacity="1"/></linearGradient></defs><g><g><g><path d="M9.871866185302734,0L26.128096185302734,0C29.749196185302733,0,31.872696185302733,0.625781,33.62339618530273,2.37656C35.374196185302736,4.12734,35.999996185302734,6.25078,35.999996185302734,9.87188L35.999996185302734,26.1281C35.999996185302734,29.7492,35.374196185302736,31.8727,33.63049618530273,33.6234C31.879696185302734,35.3742,29.742196185302735,36,26.128096185302734,36L9.871866185302734,36C6.243746185302735,36,4.127336185302735,35.3742,2.3765561853027344,33.6234C0.6257761853027344,31.8727,-0.000005155797265625,29.7492,-0.000005155797265625,26.1281L-0.000005155797265625,9.87188C-0.000005155797265625,6.25078,0.6257761853027344,4.12734,2.3765561853027344,2.37656C4.120306185302734,0.62578,6.250776185302734,-0.0000013411,9.871866185302734,0Z" fill-rule="evenodd" fill="#3080FF" fill-opacity="1" style="mix-blend-mode:passthrough"/></g><g><path d="M24.876575585937502,13.07971C24.876575585937502,13.07971,21.5788755859375,14.50412,20.2007755859375,15.10354C19.9265755859375,15.226,19.5960855859375,15.52893,19.680465585937498,15.96721C19.9476755859375,17.939500000000002,20.4960755859375,23.8305,20.4960755859375,23.8305C20.7913755859375,26.0735,19.3851555859375,28.2069,17.0859355859375,29.019C14.7867155859375,29.8246,12.1781155859375,29.0963,10.7648385859375,27.253C9.3445255859375,25.4031,9.4851505859375,22.9088,11.1023355859375,21.2072C12.7124955859375,19.499200000000002,15.3843655859375,19.0158,17.5851555859375,20.0342L16.8117155859375,12.4803C16.7273355859375,11.79709,16.8679655859375,11.10744,17.2335855859375,10.50159C17.5992155859375,9.90217,18.1546855859375,9.41877,18.836715585937498,9.12229L23.3577755859375,7.156468C23.878075585937502,6.9308818,24.4827755859375,6.9502179,24.9890755859375,7.20803C25.4952755859375,7.459398,25.8327755859375,7.917015,25.9030755859375,8.44553L26.2195755859375,10.836739999999999C26.2827755859375,11.294360000000001,26.1843755859375,11.75198,25.9452755859375,12.15803C25.6991755859375,12.55764,25.326575585937498,12.879909999999999,24.876575585937502,13.07971Z" fill="#FFFFFF" fill-opacity="1" style="mix-blend-mode:passthrough"/></g></g><g><path d="M59.804,21.669993896484375Q59.804,23.451993896484375,58.869,24.573993896484374Q57.934,25.695993896484374,56.525999999999996,26.190993896484375Q55.118,26.685993896484376,53.644,26.685993896484376Q51.422,26.685993896484376,49.574,25.662993896484377Q47.726,24.639993896484373,47.11,22.703993896484373L50.146,20.965993896484378Q50.63,22.087993896484374,51.565,22.703993896484373Q52.5,23.319993896484377,53.775999999999996,23.319993896484377Q54.722,23.319993896484377,55.305,22.956993896484374Q55.888,22.593993896484374,55.888,21.889993896484373Q55.888,21.317993896484374,55.492000000000004,20.943993896484375Q55.096000000000004,20.569993896484377,54.502,20.327993896484376Q53.908,20.085993896484375,52.83,19.777993896484375Q51.246,19.315993896484375,50.245,18.853993896484376Q49.244,18.391993896484376,48.518,17.456993896484377Q47.792,16.521993896484375,47.792,15.003993896484374Q47.792,13.331993896484375,48.661,12.209993896484374Q49.53,11.087993896484374,50.927,10.537993896484375Q52.324,9.987993896484376,53.93,9.987993896484376Q56.042,9.987993896484376,57.626,10.955993896484376Q59.21,11.923993896484376,59.672,13.705993896484374L56.592,15.443993896484375Q56.24,14.453993896484375,55.503,13.903993896484375Q54.766,13.353993896484376,53.71,13.353993896484376Q52.808,13.353993896484376,52.247,13.771993896484375Q51.686,14.189993896484374,51.686,14.849993896484374Q51.686,15.355993896484375,52.071,15.707993896484375Q52.456,16.059993896484375,53.028,16.279993896484378Q53.6,16.499993896484376,54.656,16.829993896484375Q56.284,17.313993896484376,57.296,17.786993896484375Q58.308,18.259993896484374,59.056,19.205993896484372Q59.804,20.151993896484377,59.804,21.669993896484375ZM68.186,15.025993896484374L71.77199999999999,15.025993896484374L71.77199999999999,26.399993896484375L68.604,26.399993896484375L68.56,25.915993896484373Q68.47200000000001,24.925993896484375,68.406,24.639993896484373Q67.28399999999999,26.685993896484376,64.842,26.685993896484376Q62.906,26.685993896484376,61.795,25.431993896484375Q60.684,24.177993896484374,60.684,21.735993896484374L60.684,15.025993896484374L64.27,15.025993896484374L64.27,20.525993896484373Q64.27,21.889993896484373,64.655,22.714993896484376Q65.03999999999999,23.539993896484376,66.074,23.539993896484376Q67.086,23.539993896484376,67.636,22.703993896484373Q68.186,21.867993896484375,68.186,20.371993896484376L68.186,15.025993896484374ZM79.00999999999999,23.583993896484376Q79.67,23.583993896484376,80.12100000000001,23.286993896484375Q80.572,22.989993896484375,80.924,22.417993896484376L83.63,23.979993896484373Q83.102,25.299993896484374,81.848,25.992993896484375Q80.594,26.685993896484376,79.00999999999999,26.685993896484376Q77.492,26.685993896484376,76.139,26.014993896484373Q74.786,25.343993896484374,73.939,23.990993896484376Q73.092,22.637993896484375,73.092,20.701993896484375Q73.092,18.765993896484375,73.939,17.412993896484373Q74.786,16.059993896484375,76.139,15.388993896484376Q77.492,14.717993896484375,79.00999999999999,14.717993896484375Q80.594,14.717993896484375,81.848,15.410993896484374Q83.102,16.103993896484376,83.63,17.401993896484377L80.924,18.985993896484374Q80.55,18.413993896484374,80.09899999999999,18.105993896484375Q79.648,17.797993896484375,79.00999999999999,17.797993896484375Q77.998,17.797993896484375,77.393,18.600993896484376Q76.788,19.403993896484373,76.788,20.701993896484375Q76.788,21.999993896484376,77.393,22.791993896484374Q77.998,23.583993896484376,79.00999999999999,23.583993896484376ZM90.956,14.717993896484375Q92.892,14.717993896484375,93.981,15.971993896484374Q95.07,17.225993896484376,95.07,19.667993896484376L95.07,26.399993896484375L91.48400000000001,26.399993896484375L91.48400000000001,20.877993896484377Q91.48400000000001,19.447993896484377,91.055,18.655993896484375Q90.626,17.863993896484374,89.636,17.863993896484374Q88.646,17.863993896484374,88.096,18.699993896484376Q87.54599999999999,19.535993896484374,87.54599999999999,21.031993896484373L87.54599999999999,26.399993896484375L83.96000000000001,26.399993896484375L83.96000000000001,9.657993896484374L87.54599999999999,9.657993896484374L87.54599999999999,16.433993896484374Q88.646,14.717993896484375,90.956,14.717993896484375ZM116.322,10.295993896484376L119.16,10.295993896484376L119.16,26.399993896484375L115.596,26.399993896484375L115.596,16.851993896484373L111.966,22.043993896484373L110.05199999999999,22.043993896484373L106.378,16.807993896484376L106.378,26.399993896484375L102.858,26.399993896484375L102.858,10.295993896484376L105.762,10.295993896484376L111.064,18.061993896484374L116.322,10.295993896484376ZM129.346,15.025993896484374L132.93200000000002,15.025993896484374L132.93200000000002,26.399993896484375L129.764,26.399993896484375L129.72,25.915993896484373Q129.632,24.925993896484375,129.566,24.639993896484373Q128.44400000000002,26.685993896484376,126.002,26.685993896484376Q124.066,26.685993896484376,122.955,25.431993896484375Q121.844,24.177993896484374,121.844,21.735993896484374L121.844,15.025993896484374L125.43,15.025993896484374L125.43,20.525993896484373Q125.43,21.889993896484373,125.815,22.714993896484376Q126.2,23.539993896484376,127.234,23.539993896484376Q128.24599999999998,23.539993896484376,128.796,22.703993896484373Q129.346,21.867993896484375,129.346,20.371993896484376L129.346,15.025993896484374ZM144.35,22.967993896484376Q144.35,24.727993896484374,142.975,25.706993896484374Q141.6,26.685993896484376,139.44400000000002,26.685993896484376Q137.596,26.685993896484376,136.232,25.893993896484375Q134.868,25.101993896484377,134.362,23.715993896484374L136.958,22.197993896484373Q137.244,22.967993896484376,137.91500000000002,23.396993896484375Q138.586,23.825993896484373,139.466,23.825993896484373Q140.01600000000002,23.825993896484373,140.346,23.638993896484376Q140.676,23.451993896484375,140.676,23.099993896484374Q140.676,22.681993896484375,140.203,22.439993896484374Q139.73000000000002,22.197993896484373,138.652,21.867993896484375Q137.486,21.537993896484377,136.727,21.207993896484375Q135.96800000000002,20.877993896484377,135.418,20.228993896484376Q134.868,19.579993896484375,134.868,18.545993896484376Q134.868,17.357993896484373,135.52800000000002,16.488993896484374Q136.188,15.619993896484376,137.288,15.168993896484375Q138.388,14.717993896484375,139.686,14.717993896484375Q141.49,14.717993896484375,142.72199999999998,15.487993896484374Q143.954,16.257993896484376,144.284,17.511993896484377L141.688,18.963993896484375Q141.05,17.577993896484376,139.664,17.577993896484376Q139.136,17.577993896484376,138.839,17.786993896484375Q138.542,17.995993896484375,138.542,18.325993896484377Q138.542,18.743993896484376,138.993,18.963993896484375Q139.44400000000002,19.183993896484374,140.478,19.491993896484374Q141.622,19.799993896484374,142.414,20.151993896484377Q143.20600000000002,20.503993896484374,143.77800000000002,21.185993896484376Q144.35,21.867993896484375,144.35,22.967993896484376ZM147.76,13.815993896484375Q146.902,13.815993896484375,146.286,13.188993896484375Q145.67000000000002,12.561993896484374,145.67000000000002,11.703993896484375Q145.67000000000002,10.823993896484374,146.275,10.196993896484376Q146.88,9.569993896484375,147.76,9.569993896484375Q148.596,9.569993896484375,149.223,10.207993896484375Q149.85,10.845993896484375,149.85,11.703993896484375Q149.85,12.561993896484374,149.23399999999998,13.188993896484375Q148.618,13.815993896484375,147.76,13.815993896484375ZM149.564,26.399993896484375L145.978,26.399993896484375L145.978,15.025993896484374L149.564,15.025993896484374L149.564,26.399993896484375ZM157.418,23.583993896484376Q158.078,23.583993896484376,158.529,23.286993896484375Q158.98000000000002,22.989993896484375,159.332,22.417993896484376L162.038,23.979993896484373Q161.51,25.299993896484374,160.256,25.992993896484375Q159.002,26.685993896484376,157.418,26.685993896484376Q155.9,26.685993896484376,154.547,26.014993896484373Q153.19400000000002,25.343993896484374,152.34699999999998,23.990993896484376Q151.5,22.637993896484375,151.5,20.701993896484375Q151.5,18.765993896484375,152.34699999999998,17.412993896484373Q153.19400000000002,16.059993896484375,154.547,15.388993896484376Q155.9,14.717993896484375,157.418,14.717993896484375Q159.002,14.717993896484375,160.256,15.410993896484374Q161.51,16.103993896484376,162.038,17.401993896484377L159.332,18.985993896484374Q158.958,18.413993896484374,158.507,18.105993896484375Q158.05599999999998,17.797993896484375,157.418,17.797993896484375Q156.406,17.797993896484375,155.801,18.600993896484376Q155.196,19.403993896484373,155.196,20.701993896484375Q155.196,21.999993896484376,155.801,22.791993896484374Q156.406,23.583993896484376,157.418,23.583993896484376Z" fill="#1E1E1E" fill-opacity="1"/><path d="M175.304,10.295993896484376Q177.328,10.295993896484376,178.824,10.966993896484375Q180.32,11.637993896484375,181.123,12.869993896484374Q181.926,14.101993896484375,181.926,15.751993896484375Q181.926,17.401993896484377,181.123,18.633993896484377Q180.32,19.865993896484376,178.824,20.536993896484375Q177.328,21.207993896484375,175.304,21.207993896484375L173.236,21.207993896484375L173.236,26.399993896484375L169.474,26.399993896484375L169.474,10.295993896484376L175.304,10.295993896484376ZM174.886,18.039993896484376Q176.25,18.039993896484376,177.108,17.511993896484377Q177.966,16.983993896484375,177.966,15.751993896484375Q177.966,14.541993896484374,177.097,14.002993896484375Q176.228,13.463993896484375,174.886,13.463993896484375L173.236,13.463993896484375L173.236,18.039993896484376L174.886,18.039993896484376ZM190.55,23.231993896484376Q192.728,23.231993896484376,193.718,20.943993896484375L196.864,22.791993896484374Q196.512,23.847993896484375,195.654,24.738993896484374Q194.796,25.629993896484375,193.509,26.157993896484374Q192.222,26.685993896484376,190.638,26.685993896484376Q188.46,26.685993896484376,186.656,25.651993896484374Q184.852,24.617993896484375,183.796,22.714993896484376Q182.74,20.811993896484374,182.74,18.325993896484377Q182.74,15.839993896484375,183.796,13.947993896484375Q184.852,12.055993896484374,186.656,11.021993896484375Q188.46,9.987993896484376,190.638,9.987993896484376Q192.222,9.987993896484376,193.509,10.515993896484375Q194.796,11.043993896484375,195.654,11.934993896484375Q196.512,12.825993896484375,196.864,13.881993896484374L193.718,15.729993896484375Q192.728,13.441993896484375,190.55,13.441993896484375Q189.472,13.441993896484375,188.603,14.024993896484375Q187.734,14.607993896484375,187.217,15.718993896484376Q186.7,16.829993896484375,186.7,18.325993896484377Q186.7,19.821993896484376,187.217,20.943993896484375Q187.734,22.065993896484375,188.603,22.648993896484374Q189.472,23.231993896484376,190.55,23.231993896484376Z" fill="url(#master_svg0_283_1865)" fill-opacity="1"/></g></g></svg>