<?xml version="1.0" standalone="no"?>
<svg xmlns="http://www.w3.org/2000/svg" width="24" height="24"><rect width="24" height="24" opacity="0"></rect><g><path d="M7.58 4.13Q7.22 4.13 6.98 4.38Q6.74 4.63 6.74 4.97L6.74 19.01Q6.74 19.37 6.98 19.6Q7.22 19.82 7.58 19.82Q7.92 19.82 8.16 19.6Q8.4 19.37 8.4 19.01L8.4 4.94Q8.4 4.61 8.16 4.37Q7.92 4.13 7.58 4.13ZM16.51 4.13Q16.18 4.13 15.92 4.37Q15.67 4.61 15.67 4.94L15.67 19.01Q15.67 19.37 15.91 19.6Q16.15 19.82 16.51 19.82Q16.85 19.82 17.09 19.6Q17.33 19.37 17.33 19.01L17.33 4.97Q17.33 4.63 17.09 4.38Q16.85 4.13 16.51 4.13Z" fill="rgba(255,255,255,1)"></path></g></svg>