<svg xmlns="http://www.w3.org/2000/svg" xmlns:xlink="http://www.w3.org/1999/xlink" fill="none" version="1.1" width="80" height="80" viewBox="0 0 80 80"><defs><linearGradient x1="1" y1="0.5" x2="0.08557006716728212" y2="0.16535095870494834" id="master_svg0_281_2496"><stop offset="0%" stop-color="#FDDFB0" stop-opacity="1"/><stop offset="94.9999988079071%" stop-color="#F9B1C4" stop-opacity="1"/></linearGradient><clipPath id="master_svg1_281_576"><path d="M0 13C9.81054792658386e-16 5.820298252199684 5.820298252199686 0 13 0L67 0C74.17970174780031 0 80 5.820298252199686 80 13L80 67C80 74.17970174780031 74.17970174780031 80 67 80L13 80C5.820298252199686 80 0 74.17970174780031 0 67Z"/></clipPath><clipPath id="master_svg2_281_2517"><path d="M9 13.282609105110168C9 13.282609105110168 9 13.282609105110168 9 13.282609105110168L61.599796295166016 13.282609105110168C61.599796295166016 13.282609105110168 61.599796295166016 13.282609105110168 61.599796295166016 13.282609105110168L61.599796295166016 65.88243210315704C61.599796295166016 65.88243210315704 61.599796295166016 65.88243210315704 61.599796295166016 65.88243210315704L9 65.88243210315704C9 65.88243210315704 9 65.88243210315704 9 65.88243210315704Z"/></clipPath></defs><g clip-path="url(#master_svg1_281_576)"><path d="M0 13C9.81054792658386e-16 5.820298252199684 5.820298252199686 0 13 0L67 0C74.17970174780031 0 80 5.820298252199686 80 13L80 67C80 74.17970174780031 74.17970174780031 80 67 80L13 80C5.820298252199686 80 0 74.17970174780031 0 67Z" fill="url(#master_svg0_281_2496)" fill-opacity="1"/><g><g><g><path d="M12.847827196121216 28C12.847827196121218 19.1634440027073 20.011271198828524 12 28.847827196121216 12L51.99999928474426 12C60.836555282036954 12 67.99999928474426 19.16344400270731 67.99999928474426 28L67.99999928474426 51.152191162109375C67.99999928474426 59.98874715940207 60.836555282036954 67.15219116210938 51.99999928474426 67.15219116210938L28.847827196121216 67.15219116210938C20.011271198828524 67.15219116210938 12.847827196121216 59.98874715940207 12.847827196121216 51.152191162109375Z" fill="#615858" fill-opacity="0"/></g><g clip-path="url(#master_svg2_281_2517)"><g style="opacity:0.9900000095367432;"><path d="M50.961328125,18.618200644172667L32.704818125,24.426101644172668C30.829968125,24.991841644172666,29.547534855,26.719561644172668,29.5488296926,28.67796164417267L29.5488296926,54.14496164417267L33.055488125,54.14496164417267L33.055488125,33.49956164417267C33.055488125,33.08316164417267,33.318478125,32.71056164417267,33.734898125,32.60096164417267L52.013328125,26.771171644172668C52.101028125,26.749251644172666,52.188628125,26.727341644172668,52.276328125,26.727341644172668C52.736528125,26.727341644172668,53.218728125,27.099921644172667,53.218728125,27.66975164417267L53.218728125,49.14806164417267L56.725428125,49.14806164417267L56.725428125,22.84810164417267C56.725428125,19.86744164417267,53.832428125,17.741534644172667,50.961328125,18.618200644172667Z" fill="#FFFFFF" fill-opacity="1"/></g><g style="opacity:0.9900000095367432;"><path d="M41.4239089375,52.99602555042267C42.6466559375,56.23806555042267,46.9980159375,57.54116555042267,51.141385937500004,55.90606555042267C55.2846859375,54.27106555042267,57.6506859375,50.31711555042267,56.4250859375,47.07619555042267C55.2023859375,43.83413955042267,50.8509959375,42.53104055042267,46.7076459375,44.166107550422666C42.5642959375,45.80117555042267,40.1983029375,49.75510555042267,41.4239089375,52.99602555042267Z" fill="#FFFFFF" fill-opacity="1"/></g><g style="opacity:0.9900000095367432;"><path d="M17.040805,58.13076430042267C18.322025,61.37158430042267,22.876025,62.67358430042267,27.212425,61.03878430042267C31.548825,59.40408430042267,34.025625000000005,55.45172430042267,32.744325,52.21092430042267C31.463124999999998,48.970128300422665,26.909125,47.66814430042267,22.572735,49.30286330042267C18.236315,50.93758430042267,15.759584,54.88996430042267,17.040805,58.13076430042267Z" fill="#FFFFFF" fill-opacity="1"/></g></g></g></g></g></svg>