<svg xmlns="http://www.w3.org/2000/svg" xmlns:xlink="http://www.w3.org/1999/xlink" fill="none" version="1.1" width="288" height="982" viewBox="0 0 288 982"><defs><linearGradient x1="0.5" y1="0" x2="0.508921110903004" y2="0.1471126522312072" id="master_svg0_12_1800"><stop offset="11.428571492433548%" stop-color="#AFDBE5" stop-opacity="1"/><stop offset="100%" stop-color="#F3FBFB" stop-opacity="1"/></linearGradient><clipPath id="master_svg1_12_0023"><path d="M0 0C0 0 0 0 0 0L288 0C288 0 288 0 288 0L288 982C288 982 288 982 288 982L16 982C7.1634440027073065 982 0 974.8365559972927 0 966Z"/></clipPath></defs><g clip-path="url(#master_svg1_12_0023)"><path d="M0 0C0 0 0 0 0 0L288 0C288 0 288 0 288 0L288 982C288 982 288 982 288 982L16 982C7.1634440027073065 982 0 974.8365559972927 0 966Z" fill="url(#master_svg0_12_1800)" fill-opacity="1"/></g></svg>